<?xml version="1.0" encoding="utf-8"?>
<!-- Generator: Adobe Illustrator 16.0.0, SVG Export Plug-In . SVG Version: 6.00 Build 0)  -->
<!DOCTYPE svg PUBLIC "-//W3C//DTD SVG 1.1//EN" "http://www.w3.org/Graphics/SVG/1.1/DTD/svg11.dtd">
<svg version="1.1" id="Layer_1" xmlns="http://www.w3.org/2000/svg" xmlns:xlink="http://www.w3.org/1999/xlink" x="0px" y="0px"
	 width="275px" height="175px" viewBox="0 0 275 175" enable-background="new 0 0 275 175" xml:space="preserve">
<g>
	<g>
		<path fill="#231F20" d="M53.148,131.255c0.497-5.982-0.662-16.488-9.099-11.827c-7.215,3.986-11.612,14.26-10.801,22.189
			c1.206,11.797,12.499,13.463,21.683,9.633c12.86-5.364,20.26-19.251,20.592-32.78c0.018-0.715-1.001-1.225-1.494-0.619
			c-4.309,5.299-10.625,23.965-2.536,28.587c10.08,5.76,15.255-13.23,13.996-19.924c-0.701-3.725-4.153-8.529-8.606-6.187
			c-4.421,2.327-6.23,8.518-3.447,12.739c7.449,11.304,20.906-6.413,25.575-11.694c-0.487-0.129-0.975-0.258-1.462-0.387
			c2.902,8.159,1.426,17.7,0,26.02c0.573,0.077,1.146,0.155,1.719,0.232c-0.494-5.381,0.683-11.274,2.312-16.373
			c1.037-3.246,4.422-8.455,7.188-3.183c1.607,3.063,1.82,6.981,2.691,10.294c1.548,5.885,8.316,10.963,13.301,5.606
			c6.014-6.461,7.285-18.108,8.658-26.372c1.411-8.485,2.345-17.093,2.835-25.681c-0.583,0-1.167,0-1.75,0
			c-0.083,13.79-1.475,27.44,0.137,41.221c0.651,5.565,1.624,12.404,5.372,16.864c2.569,3.059,7.124,4.622,10.643,2.1
			c5.007-3.588,7.668-11.104,9.732-16.61c2.236-5.963,4.767-13.813,2.834-20.191c-1.271-4.197-5.926-4.734-8.81-1.873
			c-4.625,4.59-5.267,13.519-5.398,19.604c-0.068,3.185-0.071,8.254,2.318,10.764c2.075,2.18,5.605,3.731,8.253,1.581
			c6.31-5.125,6.744-17.679,6.806-25.147c0.008-0.964-1.557-1.225-1.719-0.232c-0.743,4.55,2.331,27.498,11.266,20.57
			c3.819-2.961,3.5-10.137,3.893-14.451c0.315-3.47,0.559-6.972,1.418-10.357c0.759-2.988,3.442-3.312,5.259-0.567
			c1.025,1.549,1.546,3.466,1.909,5.271c0.487-0.283,0.975-0.567,1.463-0.852c-2.64-2.24-5-4.668-7.94-6.529
			c-0.521-0.33-1.083,0.023-1.285,0.523c-3.238,7.998-3.225,19.984,3.533,26.219c5.052,4.66,11.275,2.08,14.81-2.753
			c5.271-7.207,6.834-17.428,8.142-26.012c1.186-7.785,1.986-15.821,1.719-23.706c-0.029-0.859-1.179-1.208-1.631-0.441
			c-2.979,5.049-2.711,12.021-2.476,17.649c0.344,8.236,1.848,16.545,4.476,24.355c1.838,5.463,4.593,11.918,9.862,14.885
			c5.483,3.087,10.868-1.56,14.17-5.601c0.707-0.866-0.523-2.112-1.238-1.238c-3.474,4.253-8.511,8.376-13.693,4.226
			c-4.68-3.748-6.854-10.601-8.474-16.105c-2.04-6.928-3.088-14.181-3.389-21.387c-0.211-5.056-0.393-11.384,2.273-15.901
			c-0.544-0.147-1.087-0.294-1.631-0.441c0.458,13.491-1.349,28.039-5.718,40.809c-1.807,5.283-5.48,13.611-12.415,12.191
			c-10.43-2.137-9.607-18.937-6.633-26.283c-0.429,0.175-0.856,0.349-1.285,0.523c2.81,1.778,5.068,4.118,7.585,6.256
			c0.677,0.574,1.641,0.03,1.463-0.852c-0.713-3.542-3.066-10.217-7.882-8.701c-3.392,1.067-3.439,7.888-3.739,10.587
			c-0.395,3.544,0.12,19.196-6.144,17.838c-5.686-1.232-6.683-14.955-5.979-19.259c-0.573-0.077-1.146-0.155-1.719-0.232
			c-0.056,6.71-0.884,14.024-3.591,20.213c-1.657,3.787-5.604,6.018-8.642,1.888c-2.129-2.894-1.726-7.888-1.581-11.249
			c0.179-4.133,0.974-8.272,2.392-12.158c1.066-2.923,5.037-8.581,7.947-3.978c3.804,6.017-1.491,18.003-3.897,23.684
			c-2.112,4.988-5.957,14.854-12.943,12.562c-6.155-2.021-7.265-12.817-7.934-18.051c-1.757-13.746-0.22-27.454-0.137-41.221
			c0.007-1.136-1.686-1.118-1.75,0c-0.499,8.745-1.488,17.488-2.924,26.127c-0.872,5.244-1.98,10.465-3.58,15.539
			c-1.164,3.69-2.82,8.781-6.479,10.752c-4.649,2.505-8.118-5.248-8.846-8.323c-0.914-3.859-1.247-10.843-6.009-12.043
			c-8.187-2.062-9.573,19.042-9.149,23.656c0.084,0.912,1.541,1.273,1.719,0.232c1.485-8.668,3.021-18.454,0-26.949
			c-0.205-0.577-0.995-0.915-1.462-0.387c-4.713,5.332-9.644,12.696-16.902,14.568c-7.399,1.908-8.708-8.808-3.893-12.449
			c5.892-4.457,7.098,6.074,6.871,9.089c-0.316,4.19-1.934,8.591-4.594,11.847c-3.27,4.003-7.937,2.53-9.141-2.236
			c-1.594-6.31,1.042-16.81,5.151-21.863c-0.498-0.207-0.996-0.413-1.494-0.619c-0.279,11.392-5.733,22.863-15.479,29.064
			c-8.005,5.093-19.717,6.779-22.991-4.41c-1.989-6.799,1.893-14.672,6.42-19.558c1.66-1.791,4.775-4.497,7.428-3.329
			c3.368,1.482,2.478,8.239,2.248,11.018C51.305,132.38,53.056,132.371,53.148,131.255L53.148,131.255z"/>
	</g>
</g>
<g>
	<g>
		<path fill="#231F20" d="M197.479,119.345c8.069-0.033,16.131-0.423,24.2-0.456c1.128-0.005,1.129-1.755,0-1.75
			c-8.069,0.033-16.131,0.423-24.2,0.456C196.352,117.6,196.351,119.35,197.479,119.345L197.479,119.345z"/>
	</g>
</g>
<g>
	<g>
		<path fill="#231F20" d="M125.333,113.865c5.327,0,10.654,0,15.981,0c1.129,0,1.129-1.75,0-1.75c-5.327,0-10.654,0-15.981,0
			C124.205,112.115,124.205,113.865,125.333,113.865L125.333,113.865z"/>
	</g>
</g>
</svg>
