<?xml version="1.0" encoding="utf-8"?>
<!-- Generator: Adobe Illustrator 16.0.0, SVG Export Plug-In . SVG Version: 6.00 Build 0)  -->
<!DOCTYPE svg PUBLIC "-//W3C//DTD SVG 1.1//EN" "http://www.w3.org/Graphics/SVG/1.1/DTD/svg11.dtd">
<svg version="1.1" id="Layer_1" xmlns="http://www.w3.org/2000/svg" xmlns:xlink="http://www.w3.org/1999/xlink" x="0px" y="0px"
	 width="275px" height="175px" viewBox="0 0 275 175" enable-background="new 0 0 275 175" xml:space="preserve">
<g>
	<g>
		<path fill="#231F20" d="M41.771,144.916c14.577,0.771,21.682-11.342,25.659-23.583c3.778-11.629,8.34-28.045,2.951-39.834
			c-0.336-0.736-1.389-0.447-1.599,0.209c-7.152,22.297,1.082,46.164-5.936,68.493c0.533-0.07,1.066-0.14,1.599-0.209
			c-2.34-4.551,1.352-25.946,8.692-19.352c4.195,3.77,5.303,11.682,7.607,16.673c1.628,3.526,4.38,7.497,8.685,5.513
			c6.23-2.872,8.471-12.327,9.274-18.296c0.411-3.052,0.42-6.383-1.223-9.085c-1.031-1.695-4.355-3.468-6.252-2.195
			c-4.868,3.267-4.104,13.281-1.802,17.825c7.905,15.604,31.421,12.874,41.327,1.196c6.054-7.138,8.546-17.202,9.678-26.271
			c0.613-4.907,0.888-9.824,0.897-14.769c0.008-4.314,0.044-9.456-2.304-13.25c-3.769-6.09-10.832,4.5-12.045,7.552
			c-3.437,8.643-3.86,18.386-3.094,27.558c0.683,8.168,2.625,15.924,8.64,21.773c6.235,6.064,15.134,6.012,22.455,2.159
			c7.555-3.975,12.195-11.742,14.514-19.684c2.326-7.968,4.181-16.386,4.187-24.718c0.003-3.306-0.448-7.117-2.938-9.522
			c-2.213-2.138-5.123-1.562-7.011,0.531c-2.623,2.91-3.354,7.764-3.92,11.473c-0.946,6.205-1.62,12.323-1.233,18.613
			c0.538,8.749,5.361,25.078,16.598,25.309c8.565,0.177,14.954-9.907,8.311-16.563c-0.544-0.544-1.486-0.141-1.494,0.619
			c-0.038,3.782,3.482,7.647,5.78,10.323c2.554,2.976,6.531,6.925,10.832,6.265c3.911-0.602,3.84-5.922,2.398-8.48
			c-2.392-4.24-8.938-6.913-13.569-7.156c-0.725-0.038-1.008,0.757-0.756,1.316c3.362,7.463,15.573,6.387,22.217,6.37
			c1.128-0.003,1.129-1.753,0-1.75c-6.068,0.015-17.688,1.196-20.705-5.503c-0.252,0.438-0.504,0.878-0.756,1.316
			c3.694,0.194,7.331,1.997,10.191,4.26c4.461,3.529,2.305,10.049-3.283,6.858c-3.884-2.216-10.648-8.956-10.6-13.819
			c-0.498,0.206-0.996,0.412-1.494,0.619c5.212,5.221,0.608,12.941-6.006,13.598c-7.357,0.729-12.4-8.786-14.281-14.53
			c-3.228-9.858-1.959-21.538,0.365-31.481c0.486-2.08,1.209-4.091,2.302-5.93c2.032-3.422,5.337-1.379,6.449,1.405
			c1.711,4.28,0.825,9.868,0.216,14.283c-1.121,8.131-2.918,17.188-7.031,24.384c-6.165,10.787-20.104,17.119-30.499,8.198
			c-7.632-6.55-8.4-18.414-8.439-27.729c-0.021-5.027,0.54-10.06,1.719-14.945c0.452-1.874,6.821-17.985,10.95-11.312
			c2.583,4.176,1.654,11.559,1.508,16.307c-0.18,5.883-0.885,11.739-2.161,17.484c-2.142,9.645-6.662,19.113-15.638,24.001
			c-7.801,4.248-18.611,3.517-25.887-1.4c-4.135-2.795-6.038-7.446-6.23-12.282c-0.074-1.85,0.138-3.703,0.521-5.509
			c0.979-4.624,5.551-3.909,6.752,0.137c2.055,6.92-1.952,18.449-7.794,22.631c-6.183,4.425-11.421-19.256-15.577-22.322
			c-3.944-2.909-8.351,1.869-9.703,5.156c-2.003,4.868-3.392,12.091-0.85,17.032c0.363,0.706,1.384,0.475,1.599-0.209
			c7.022-22.342-1.21-46.214,5.936-68.493c-0.533,0.07-1.066,0.14-1.599,0.209c4.75,10.391,0.862,24.495-2.043,34.893
			c-3.494,12.501-9.771,26.7-25.056,25.892C40.643,143.106,40.649,144.856,41.771,144.916L41.771,144.916z"/>
	</g>
</g>
</svg>
